<svg xmlns="http://www.w3.org/2000/svg" height="800" width="1200" version="1.0" viewBox="-43.5897 -20.565 377.7774 123.39"><path d="M10.466 57.464l-2.265-.991 9.396-1.145c.167.271.329.511.519.765zm25.22 0l2.268-1.051-9.343-1.114c-.082.3-.33.54-.498.794zm-1.363.157l-2.847.954-4.046-1.228-.351-.11c.135-.106.245-.213.351-.357.171-.133.307-.327.467-.467zm7.513-2.65l-2.6 1.205-10.381-1.205c.085-.243.167-.49.244-.741zm.928-.36l3.39-2.152H27.793c0 .767-.111 1.425-.363 1.992-.704 1.829-2.479 2.706-4.256 2.68-1.745-.051-3.525-.954-4.317-2.623-.277-.607-.438-1.251-.438-2.049H0l3.361 2.152 14.072-.728c.272 1.005.771 1.882 1.424 2.529 1.123 1.181 2.729 1.832 4.317 1.832 1.559.033 3.14-.54 4.256-1.799.605-.654 1.069-1.502 1.345-2.52zm-15.334 5.58l.363.657-.363.166-.952.438-1.091-2.162c-.685.24-1.443.377-2.213.406-.821.03-1.672-.086-2.409-.327l-.924 2.083c-.304.023-.713 0-.984-.196-.14-.084-.277-.218-.331-.407l.331-.551.792-1.419c-.249-.167-.465-.276-.688-.493l.658-.792c1.125.685 2.352 1.062 3.556 1.062 1.204.03 2.4-.354 3.521-1.145l.734.218.307.113c-.109.079-.193.156-.307.243-.215.217-.405.435-.756.627zm0-11.181c.712.846 1.236 1.89 1.51 3.091h-1.173c-.085-.354-.195-.711-.337-1.038-.783-2.076-2.4-3.551-4.256-4.781-.247-.141-.467-.301-.712-.438.245.083.465.163.712.246 1.69.682 3.193 1.613 4.256 2.92zm-3.169 7.71c.309-.054.769-.221 1.126-.494l-1.863-3.688 1.941-.927-1.635-1.418-.656.297-2.817 1.281.827 1.858 1.333-.597zm-5.077.517c-.111-.08-.223-.187-.327-.273-.219-.19-.414-.384-.542-.574l-6.424 1.212 2.734.918zm-1.751-2.266c-.108-.243-.187-.49-.272-.741l-12.843.741 2.596 1.255z" clip-rule="evenodd" fill="#00529b" fill-rule="evenodd"/><path d="M98.131 76.032c4.236.668 12.351 1.715 22.289 1.933 9.918.25 21.578-.33 32.597-1.976 11.018-1.599 21.346-4.285 28.68-7.182 7.39-2.784 11.522-6.177 11.503-6.19.04.02-4.266 3.944-12.094 7.312-7.747 3.497-18.686 6.851-30.205 9.017-11.506 2.227-23.575 3.244-33.393 3.304-9.815.114-17.441-.771-20.113-1.19-9.235-1.376-15.944-3.805-20.038-6.144-4.133-2.356-5.51-4.485-5.079-4.899.457-.491 2.515.503 6.683 1.792 4.172 1.307 10.523 2.938 19.17 4.223z" fill="#f47920"/><g transform="translate(-.667 -.869)"><path d="M275.223 7.136l-1.573.2-1.009.096c-1.892.164-4.747.407-7.267 2.012-2.499 1.595-5.363 4.926-7.364 7.489-21.702 3.634-33.6 16.492-41.473 25.011l-4.935 5.76.827-.257c14.789-13.646 27.979-20.944 40.329-22.309l.183-.02 1.645-2.146 3.461-4.539c1.423-1.282 3.392-1.735 6.291-2.066l5.059-.323 5.987-.42c3.42-.458 6.358-1.246 10.39-6.785l5.491-7.412-.644-.558c-5.038 4.991-10.541 5.669-15.398 6.267zm.104.847c4.208-.517 8.877-1.265 13.383-4.542-1.626 2.196-3.625 4.895-3.625 4.895-3.842 5.276-6.49 5.998-9.814 6.441 0 .003-5.91.413-5.91.413l-5.119.331c-2.162.244-3.735.704-5.117 1.392 1.925-2.423 4.479-5.323 6.713-6.748 2.339-1.495 5.068-1.725 6.875-1.882l1.052-.104c0 .001 1.562-.196 1.562-.196zm-17.984 9.975c-.389.501-3.435 4.495-3.435 4.495s-1.252 1.635-1.434 1.873c-10.551 1.215-21.69 6.707-33.854 16.641 7.686-8.256 19.079-19.455 38.723-23.009zm16.42-9.778h.007z" clip-rule="evenodd" fill-rule="evenodd"/><linearGradient gradientTransform="matrix(.246 0 0 .246 1029.1508 996.5813)" y2="-3851.6111" x2="-3204.3096" y1="-3928.3291" x1="-3286.5796" gradientUnits="userSpaceOnUse" id="a"><stop offset=".0056" stop-color="#c4161c"/><stop offset=".3" stop-color="#c93627"/><stop offset=".5" stop-color="#ebb39e"/><stop offset=".7191" stop-color="#c93627"/><stop offset="1" stop-color="#c4161c"/></linearGradient><path d="M212.15 47.151c15.694-11.47 24.131-16.024 42.773-16.191l-4.016 5.417c-.756 1.607-1.929 1.534-3.164 1.46-13.327-.106-22.636.888-38.826 12.645z" clip-rule="evenodd" fill="url(#a)" fill-rule="evenodd"/><linearGradient gradientTransform="matrix(.246 0 0 .246 1029.1508 996.5813)" y2="-3864.4204" x2="-3147.6008" y1="-3961.1313" x1="-3285.7183" gradientUnits="userSpaceOnUse" id="b"><stop offset="0" stop-color="#fff"/><stop offset=".3427" stop-color="#fff"/><stop offset=".55" stop-color="#fff"/><stop offset=".9101" stop-color="#c2cae3"/></linearGradient><path d="M212.14 47.133c15.793-14.572 28.978-21.136 40.572-22.417 1.026-1.358 4.567-5.907 5.64-7.422-26.428 4.315-38.111 22.201-46.212 29.839z" clip-rule="evenodd" fill="url(#b)" fill-rule="evenodd"/><linearGradient gradientTransform="matrix(.246 0 0 .246 1029.1508 996.5813)" y2="-3878.3928" x2="-3213.949" y1="-3924.6646" x1="-3263.5693" gradientUnits="userSpaceOnUse" id="c"><stop offset=".1067" stop-color="#00529b"/><stop offset=".5" stop-color="#778ec1"/><stop offset=".5196" stop-color="#728abf"/><stop offset=".7283" stop-color="#3c69aa"/><stop offset=".8811" stop-color="#00589f"/><stop offset=".9607" stop-color="#00529b"/></linearGradient><path d="M212.951 46.299c-.313.3-1.403 1.475-1.716 1.755 9.268-6.834 17.03-13.948 36.361-16.578.963-1.091 3.775-4.789 5.1-6.761-17.623 2.396-29.149 12.235-39.745 21.584z" clip-rule="evenodd" fill="url(#c)" fill-rule="evenodd"/><linearGradient gradientTransform="matrix(.246 0 0 .246 1029.1508 996.5813)" y2="-3909.9287" x2="-3149.2168" y1="-3928.29" x1="-3178.6011" gradientUnits="userSpaceOnUse" id="d"><stop offset=".0056" stop-color="#c4161c"/><stop offset=".4944" stop-color="#c93627"/><stop offset="1" stop-color="#ebb39e"/></linearGradient><path d="M250.557 37.002c.17-.597.586-1.041-1.373-2.196-2.305-1.358-3.102-.787-2.592-2.168.379-1.048 5.33-3.134 8.943-1.91.001.001-3.205 3.715-4.978 6.274z" clip-rule="evenodd" fill="url(#d)" fill-rule="evenodd"/><linearGradient gradientTransform="matrix(.9841 .0195 -.0195 .9841 32.0135 115.2372)" y2="-96.5512" x2="249.2723" y1="-112.8286" x1="227.6714" gradientUnits="userSpaceOnUse" id="e"><stop offset=".073" stop-color="#c2cae3"/><stop offset=".5" stop-color="#00529b"/><stop offset=".545" stop-color="#00559e"/><stop offset=".6155" stop-color="#1f5fa4"/><stop offset=".7025" stop-color="#486fae"/><stop offset=".8028" stop-color="#738bbf"/><stop offset=".9129" stop-color="#abb7d9"/><stop offset=".9494" stop-color="#c2cae3"/></linearGradient><path d="M264.44 15.588c-3.615.484-5.895 1.385-7.343 3.21l-5.048 6.761c1.101-.984 4.428-1.468 8.032-1.561l.505.01c.15-.01.306 0 .459-.01.508-.013 1.048-.037 1.61-.051 5.112-.2 12.21-.921 16.354-5.75l6.209-8.586.743-1.022c-5.393 7.103-17.698 6.489-21.521 6.999z" clip-rule="evenodd" fill="url(#e)" fill-rule="evenodd"/><linearGradient gradientTransform="matrix(.9841 .0195 -.0195 .9841 32.0135 115.2372)" y2="-88.7369" x2="242.386" y1="-104.1655" x1="221.9116" gradientUnits="userSpaceOnUse" id="f"><stop offset=".0562" stop-color="#ebb39e"/><stop offset=".3278" stop-color="#c93627"/><stop offset=".5169" stop-color="#c4161c"/><stop offset=".7472" stop-color="#c93627"/><stop offset=".9607" stop-color="#ebb39e"/></linearGradient><path d="M267.438 23.101c-3.878.543-8.313.704-9.585.768-2.173.096-5.061.79-5.86 1.758-2.436 3.027-4.768 5.85-5.4 7.012 1.488-1.375 6.384-1.225 12.325-1.499 5.935-.271 11.948-2.837 16.69-8.243l3.603-4.979c-2.412 3.094-6.661 4.469-11.773 5.183z" clip-rule="evenodd" fill="url(#f)" fill-rule="evenodd"/><linearGradient gradientTransform="matrix(.9841 .0195 -.0195 .9841 32.0135 115.2372)" y2="-103.5741" x2="254.8572" y1="-120.1172" x1="232.9038" gradientUnits="userSpaceOnUse" id="g"><stop offset="0" stop-color="#fff"/><stop offset=".3" stop-color="#fff"/><stop offset=".5056" stop-color="#d4d9ec"/><stop offset=".7" stop-color="#fff"/><stop offset="1" stop-color="#fff"/></linearGradient><path d="M273.707 7.757c-1.579.213-5.14.156-8.101 2.048-2.967 1.892-6.539 6.381-8.295 8.744 1.632-1.746 3.799-2.243 6.979-2.603 3.179-.367 7.772-.304 11.037-.745 3.136-.417 6.053-1.047 10.102-6.611l5.493-7.415c-5.694 5.64-11.912 5.874-17.215 6.582z" clip-rule="evenodd" fill="url(#g)" fill-rule="evenodd"/></g><path d="M50.467 28.655v-2.979H39.782v-5.163h11.263v-2.981H31.863v19.807h19.805v-3.013H39.782v-5.671zm12.787 8.684V20.513h4.653c1.417 0 2.726.106 3.921.904.869.618 1.415 1.498 1.415 2.59 0 .911-.324 1.849-1.523 2.609-1.563 1.018-4.285 1.158-5.993.952l-.98-.117 7.887 9.888h9.151L74.3 29.087c1.341-.147 3.491-.68 4.795-1.518 1.561-1.059 2.36-2.621 2.36-4.078 0-1.632-.877-3.407-2.866-4.575-2.367-1.342-5.596-1.382-8.575-1.382H55.3V37.34h7.954zm75.5-16.826v-2.981h-19.469v19.807h7.914V28.98h10.683v-2.981h-10.683v-5.486zm22.495 16.826v-3.013h-11.666V17.532h-7.958v19.807zm32.699-16.826h8.538v16.826h7.959V20.513h8.533v-2.981h-25.03zm-16.858-3.557c-3.706 0-8.902.838-12.391 3.337-2.767 1.962-4.069 4.768-4.069 7.158 0 2.366 1.303 5.166 4.069 7.128 3.489 2.465 8.685 3.303 12.391 3.303 3.702 0 8.936-.838 12.421-3.303 2.765-1.962 4.039-4.762 4.039-7.128 0-2.39-1.274-5.196-4.039-7.158-3.485-2.499-8.719-3.301-12.421-3.337zm0 18.53c-1.965 0-4.29-.437-6.002-2.583-1.415-1.742-1.668-3.745-1.668-5.453 0-1.775.253-3.741 1.668-5.483 1.712-2.186 4.037-2.617 6.002-2.617 1.993 0 4.29.431 6.023 2.617 1.422 1.742 1.679 3.708 1.679 5.483 0 1.708-.257 3.711-1.679 5.453-1.733 2.147-4.03 2.583-6.023 2.583zm-77.01-18.53c-3.703 0-8.897.838-12.384 3.337-2.767 1.962-4.076 4.768-4.076 7.158 0 2.366 1.309 5.166 4.076 7.128 3.487 2.465 8.682 3.303 12.384 3.303s8.939-.838 12.429-3.303c2.757-1.962 4.033-4.762 4.033-7.128 0-2.39-1.276-5.196-4.033-7.158-3.49-2.499-8.727-3.301-12.429-3.337zm0 18.53c-1.962 0-4.289-.437-5.994-2.583-1.416-1.742-1.673-3.745-1.673-5.453 0-1.775.257-3.741 1.673-5.483 1.705-2.186 4.032-2.617 5.994-2.617 1.994 0 4.288.431 6.03 2.617 1.419 1.742 1.672 3.708 1.672 5.483 0 1.708-.253 3.711-1.672 5.453-1.742 2.147-4.037 2.583-6.03 2.583zM3.958 37.339l3.127-5.75h11.013l3.375 5.75h8.9L18.315 17.532h-7.379L0 37.339zm4.578-8.434l3.745-6.901h.11l4.066 6.901zM83.348 53.21l-1.763 6.504c-.218.26-.557.478-.864.641-.475.257-.946.394-1.38.394-.432 0-.815-.173-.991-.438-.128-.217-.255-.558-.085-1.164l1.596-5.937h-1.639l-1.545 5.723c-.131.521-.347 1.422.124 2.112.262.388.825.821 1.979.821.478 0 .954-.084 1.559-.344.384-.224.811-.478 1.16-.737l-.256.907h1.46l2.292-8.482zm10.485.98c-.39-.514-.867-.771-.953-.817-.548-.293-1.158-.344-1.682-.344-.558 0-1.249.051-2.019.518-.562.393-1.249.991-1.503 1.985-.23.73-.137 1.288.124 1.636.299.39.817.6 1.254.729l.814.265c.426.086.861.086 1.116.423.13.177.267.395.177.822-.132.387-.384.644-.604.817-.299.263-.82.483-1.55.483-.472 0-.862-.097-1.248-.313-.342-.254-.604-.471-.735-.681l-1.082.994c.779 1.021 1.733 1.158 2.675 1.158.642 0 1.94-.084 3.019-.904.598-.514 1.033-1.168 1.209-1.726.085-.437.17-1.074-.043-1.469-.306-.6-.994-.857-1.383-.947l-.604-.174c-.769-.174-1.117-.257-1.291-.474-.168-.123-.303-.384-.168-.901.078-.213.258-.563.595-.82.431-.261.828-.301 1.126-.301.386 0 .731.09 1.035.301.259.17.47.391.644.607zm8.836 0c-.347-.514-.818-.771-.946-.817-.514-.293-1.125-.344-1.637-.344-.594 0-1.249.051-2.025.518-.561.393-1.251.991-1.552 1.985-.164.73-.085 1.288.174 1.636.301.39.867.6 1.248.729l.774.265c.431.086.867.086 1.165.423.13.177.258.395.13.822-.13.387-.384.644-.563.817-.302.263-.815.483-1.55.483-.473 0-.857-.097-1.29-.313-.349-.254-.563-.471-.734-.681l-1.078.994c.829 1.021 1.772 1.158 2.715 1.158.651 0 1.937-.084 3.019-.904.602-.514 1.034-1.168 1.163-1.726.13-.437.17-1.074-.043-1.469-.258-.6-.95-.857-1.375-.947l-.608-.174c-.736-.174-1.07-.257-1.251-.474-.167-.123-.295-.384-.167-.901.085-.213.214-.563.602-.82.391-.261.817-.301 1.074-.301.437 0 .777.09 1.081.301.262.17.472.391.646.607zm3.16-.98l-.305 1.114h.99l-1.973 7.368h1.63l2.282-8.482zm1.036-2.801c-.138.598.215 1.072.78 1.072.6 0 1.155-.475 1.328-1.072.168-.567-.173-1.037-.777-1.037-.551 0-1.157.469-1.331 1.037zm14.968 11.283l1.814-6.678c.568-.477 1.427-.864 2.199-.864.561 0 .868.214.991.471.261.394.132 1.034.041 1.295l-1.549 5.776h1.64l1.549-5.643c.177-.694.257-1.512-.129-2.199-.347-.558-.987-.821-1.897-.821-.554 0-1.503.131-2.543.821l.176-.641h-2.634l-.296 1.114h.989l-1.98 7.368h1.629zM67.941 49.459l-3.314 12.233h1.848l1.432-5.379h1.241l1.728 5.379h2.234l-1.979-5.473c.908-.093 2.116-.518 2.844-1.078.813-.604 1.426-1.465 1.631-2.37.262-.867.141-1.765-.374-2.362-.694-.867-2.074-.95-3.066-.95h-1.16zm3.065 5.462h-2.715l1.08-4.044h2.458c.26 0 1.071 0 1.505.431.255.26.473.69.294 1.378-.17.647-.518 1.165-1.029 1.596-.559.426-1.166.602-1.593.639zm42.853 1.816c-1.721.173-3.147.861-3.618 2.632-.045.207-.088.384-.088.555v.301c.043.95.688 1.642 2.11 1.642.514 0 1.032-.084 1.596-.311.047 0 .088-.033.169-.077.563-.26.986-.693 1.123-.82h.085l-.295 1.034h1.463l1.506-5.473c.219-.864.427-1.726-.047-2.369-.39-.604-1.376-.821-2.147-.821-.739 0-1.385.09-1.858.217-1.502.384-2.069 1.292-2.113 2.109l1.513.087c.122-.428.301-.734.6-.948.347-.254.864-.344 1.51-.344.348 0 .774.04.945.344.264.304.174.734.09 1.125l-.304 1.074h-1.207c-.348-.001-.728-.001-1.033.043zm0 3.874c-.259.097-.517.137-.779.137-.337 0-.771-.04-1.027-.394-.215-.304-.263-.602-.13-1.035.085-.34.255-.688.685-1.03.258-.174.604-.392 1.251-.471.213-.051.473-.09.781-.09h1.206l-.476 1.805c-.261.347-.518.561-.825.777-.253.138-.473.265-.686.301zm39.351-7.401l-.298 1.114h.991l-1.988 7.368h1.64l2.281-8.482zm1.516-2.801c-.135.598.21 1.072.776 1.072.553 0 1.158-.475 1.329-1.072.177-.567-.171-1.037-.776-1.037-.554 0-1.17.469-1.329 1.037zm4.733 2.801l-2.28 8.482h1.639l1.293-4.872c.213-.558.425-1.118.732-1.549.516-.82 1.113-.947 1.465-.947.215 0 .468.04.645.214.121.133.172.383.172.69l1.465-.431c.295-.858 0-1.338-.514-1.588-.268-.13-.566-.181-.867-.181-.948 0-1.889.518-2.543 1.422l.342-1.241h-1.549zm9.057-3.925l-2.711 10.084c-.21.771-.604 2.323 1.34 2.323h.945l.299-1.117h-.468c-.817 0-.606-.695-.568-.861l2.805-10.429zm4.431 3.925l-.29 1.114h.994l-2.034 7.368h1.681l2.287-8.482zm1.511-2.801c-.132.598.215 1.072.776 1.072.606 0 1.167-.475 1.336-1.072.129-.567-.218-1.037-.771-1.037-.607 0-1.164.469-1.341 1.037zm4.511 11.283l1.764-6.678c.603-.477 1.467-.864 2.237-.864.562 0 .869.214.994.471.301.394.087 1.034.044 1.295l-1.547 5.776h1.631l1.552-5.643c.173-.694.26-1.512-.13-2.199-.337-.558-.991-.821-1.89-.821-.606 0-1.469.131-2.543.821l.171-.641h-2.627l-.304 1.114h.989l-1.977 7.369zm25.294-7.502c-.341-.514-.771-.771-.908-.817-.559-.293-1.11-.344-1.632-.344-.612 0-1.251.051-2.022.518-.605.393-1.295.991-1.552 1.985-.226.73-.088 1.288.166 1.636.262.39.822.6 1.211.729l.819.265c.425.086.866.086 1.11.423.182.177.268.395.182.822-.124.387-.383.644-.604.817-.263.263-.777.483-1.55.483-.485 0-.825-.097-1.256-.313-.341-.254-.595-.471-.728-.681l-1.077.994c.774 1.021 1.727 1.158 2.673 1.158.688 0 1.938-.084 3.015-.904.607-.514 1.028-1.168 1.207-1.726.13-.437.175-1.074-.035-1.469-.265-.6-1.003-.857-1.382-.947l-.61-.174c-.722-.174-1.075-.257-1.288-.474-.135-.123-.301-.384-.174-.901.086-.213.207-.563.605-.82.426-.261.856-.301 1.12-.301.429 0 .726.09 1.069.301.221.17.432.391.607.607zm-65.592 7.502h1.853l1.853-2.977h4.693l.217 2.977h2.112l-1.16-12.233h-1.51zm4.568-4.394l3.315-5.213h.041l.395 5.213zm46.601.52h5.118l.136-.561c.342-1.131.683-2.29.088-3.233-.519-.814-1.553-.995-2.289-.995-1.091 0-2.138.391-2.97 1.121-1.125.991-1.588 2.322-1.85 3.448-.258.906-.521 2.281.168 3.276.645.854 1.816.991 2.629.991.66 0 1.27-.094 1.902-.311.339-.123.768-.297 1.155-.511l-.251-.994c-.395.174-.692.304-1.126.397-.402.073-.781.163-1.21.163-.641 0-1.205-.217-1.501-.597-.478-.561-.259-1.43-.127-1.853zm.255-1.125l.085-.38c.178-.44.391-1.128.944-1.605.364-.354.923-.558 1.427-.558.434 0 .858.131 1.078.388.383.521.21 1.251.048 1.812l-.094.344h-3.488z" clip-rule="evenodd" fill="#00529b" fill-rule="evenodd"/></svg>