<svg xmlns="http://www.w3.org/2000/svg" height="800" width="1200" version="1.0" viewBox="-118.49985 -94.94075 1026.9987 569.6445"><g fill="#0079c1"><path d="M209.97 68.594c-8.08-35.25-28.277-63.913-31-68.594-4.39 6.577-20.46 31.886-28.716 59.97-8.87 31.298-10.186 59.074-7.113 86.43 3.074 27.354 14.578 55.438 14.578 55.438 6.147 14.762 15.368 30.56 21.34 38.323 8.781-11.416 28.979-45.489 35.302-89.96 3.512-24.71 3.6-46.358-4.391-81.607zm-31 162.786c-3.951-7.456-10.098-21.656-10.713-43.593-.176-21.199 8.342-39.342 10.801-43.144 2.196 3.802 9.572 19.6 10.45 41.247.527 21.208-6.498 37.885-10.538 45.49zm28.63-102.966c-.264 13.445-1.844 27.636-3.952 36.12.79-14.622-.966-35.241-4.39-51.338-3.338-16.088-12.822-42.995-20.462-55.43-7.026 11.846-15.632 35.109-20.198 55.28-4.479 20.198-4.654 44.611-4.654 51.935-1.23-6.173-4.216-28.18-3.337-50.319.702-18.257 4.917-37.006 7.288-45.63 8.958-28.812 19.057-47.236 20.9-50.16 1.933 2.924 14.666 25.59 21.253 49.432 6.586 23.833 7.903 46.648 7.552 60.11"/><path d="M192.582 248.372h-61.208v41.072c.088-.053.175-.114.175-.167 14.402-14.42 37.85-14.42 52.251 0 14.402 14.428 14.402 37.814 0 52.233-.087.062-.087.115-.175.167v.018c-.088.07-.176.123-.264.193-14.314 14.28-33.194 21.427-51.987 21.427-18.88 0-37.761-7.2-52.163-21.603-25.38-25.387-28.365-64.659-9.045-93.34 2.634-3.873 5.62-7.561 9.045-10.986 14.402-14.41 33.282-21.611 52.163-21.611v-98.777C58.837 116.998 0 175.818 0 248.372c0 72.546 58.837 131.365 131.374 131.365 37.849 0 71.922-16 95.896-41.581v-89.784h-34.688M304.9 356.308c0 9.194-1.142 23.455-19.583 23.455h-21.779c-18.354 0-19.495-14.261-19.495-23.455v-84.445c0-9.203 1.141-23.465 19.495-23.465h21.779c18.441 0 19.583 14.262 19.583 23.465v18.573h-26.345v-21.418c0-2.248-1.669-4.312-4.128-4.312-1.493 0-4.127.93-4.127 4.312V358.6c0 3.372 2.634 4.311 4.127 4.311 2.46 0 4.128-2.063 4.128-4.311v-28.752h-3.952v-14.454H304.9v40.914m39.517-25.898l4.479-65.651h1.493l4.566 65.651zm-29.067 49.353h25.73l2.371-34.898h12.382l2.46 34.898h25.73l-13.7-131.365H329.05l-13.7 131.365m78.42-16.509l25.204-98.495h-22.57v-16.36h49.53v16.325l-25.116 98.196h26.696v16.843H393.77v-16.51m92.383-44.549v-54.016h3.337c2.898 0 4.918 2.433 4.918 6.57v40.878c0 4.127-2.02 6.568-4.918 6.568zm-26.345 61.06h26.345V335.1h15.017c18.354 0 19.495-14.262 19.495-23.456v-39.781c0-9.203-1.141-23.465-19.495-23.465h-41.362v131.365m100.638-64.984v-50.082h3.425c2.81 0 4.83 2.433 4.83 6.56v36.953c0 4.128-2.02 6.569-4.83 6.569zm37.937 64.984l-12.909-51.232c9.309-3.75 9.484-12.39 9.484-15.947v-40.721c0-9.203-1.053-23.465-19.495-23.465h-41.274v131.365h26.257v-48.606h1.932l8.958 48.606h27.047m48.651-21.163c0 2.256-1.669 4.32-4.128 4.32-1.493 0-4.127-.94-4.127-4.32v-89.582c0-3.381 2.634-4.312 4.127-4.312 2.46 0 4.128 2.064 4.128 4.312zm-34.512-2.292c0 9.194 1.141 23.455 19.583 23.455h21.69c18.442 0 19.584-14.261 19.584-23.455v-84.445c0-9.203-1.142-23.465-19.583-23.465h-21.691c-18.442 0-19.583 14.262-19.583 23.465v84.445m143.317-107.91h34.16v131.365h-26.257v-82.39h-.966l-13.524 82.39h-20.988l-13.524-82.39h-.966v82.39h-26.257V248.398h34.16l17.037 92.33 17.125-92.33"/></g></svg>