<svg xmlns="http://www.w3.org/2000/svg" height="800" width="1200" viewBox="-23.5359 -7.9043 203.9778 47.4258"><defs><clipPath id="a" clipPathUnits="userSpaceOnUse"><path d="M0 0h595.276v841.89H0z"/></clipPath><clipPath id="b" clipPathUnits="userSpaceOnUse"><path d="M0 0h595.276v841.89H0z"/></clipPath><clipPath id="c" clipPathUnits="userSpaceOnUse"><path d="M0 0h595.276v841.89H0z"/></clipPath></defs><path d="M36.9462 3.4011h6.7025v18.194h7.1807v5.7459H36.9462z" fill="#231f20"/><g clip-path="url(#a)" transform="matrix(3.04656 0 0 -3.04656 -164.0816 2512.0188)"><path d="M71.4269 818.7455v4.681h2.2v-4.636c0-.483.09-1.56 1.257-1.56 1.168 0 1.258 1.077 1.258 1.56v4.636h2.2v-4.681c0-.842-.18-3.401-3.458-3.401-3.277 0-3.457 2.559-3.457 3.401" fill="#231f20"/></g><path d="M78.961 3.4011h6.7025v10.0537L92.8807 3.401h7.8663L91.65 14.9933l9.3346 12.3477h-8.378l-6.9431-10.2943V27.341H78.961zM131.4072 3.4h6.7025v23.9398h-6.7025zm11.6126.0011h6.7024v18.194h7.1838v5.7459h-13.8862z" fill="#231f20"/><g clip-path="url(#b)" transform="matrix(3.04656 0 0 -3.04656 -164.0816 2512.0188)"><path d="M93.4033 819.4919c0 1.551-.954 2.32-1.999 2.32-1.045 0-1.999-.769-1.999-2.32 0-1.551.954-2.32 1.999-2.32 1.045 0 1.999.769 1.999 2.32m-6.318 0c0 2.148 1.379 4.25 4.319 4.25 2.941 0 4.319-2.102 4.319-4.25s-1.378-4.25-4.319-4.25c-2.94 0-4.319 2.102-4.319 4.25" fill="#231f20"/></g><path d="M0 0h31.5502v31.617H0z" fill="#e22739"/><g clip-path="url(#c)" transform="matrix(3.04656 0 0 -3.04656 -164.0816 2512.0188)" fill="#fff"><path d="M63.0684 822.5732l-1.163-1.881c-.127-.211-.108-.377-.049-.537l1.766-4.518h-7.314c-.656 0-1.164.527-1.164 1.155l-.007 6.014c.018.777 1.15.79 1.171.003v-5.637c-.002-.179.155-.38.362-.375h5.357l-1.387 3.264c-.036.125-.061.249-.061.374 0 .138.061.359.152.539l1.273 2.096c.094.188.284.315.51.324.317.014.588-.204.602-.541.001-.067-.015-.214-.048-.28"/><path d="M59.0343 818.775v4.034c0 .787 1.148.793 1.161 0v-4.078c0-.933-.697-1.55-1.551-1.55-.853 0-1.552.632-1.552 1.55v4.078c0 .787 1.161.787 1.161 0v-4.034c0-.541.781-.574.781 0"/></g></svg>