<svg xmlns="http://www.w3.org/2000/svg" height="800" width="1200" viewBox="-44.691045 -22.5003 387.32239 135.0018"><defs><clipPath id="a" clipPathUnits="userSpaceOnUse"><path d="M0 0h595.276v841.89H0z"/></clipPath><clipPath id="b" clipPathUnits="userSpaceOnUse"><path d="M0 0h595.276v841.89H0z"/></clipPath><clipPath id="c" clipPathUnits="userSpaceOnUse"><path d="M0 0h595.276v841.89H0z"/></clipPath><clipPath id="d" clipPathUnits="userSpaceOnUse"><path d="M0 0h595.276v841.89H0z"/></clipPath><clipPath id="e" clipPathUnits="userSpaceOnUse"><path d="M0 0h595.276v841.89H0z"/></clipPath><clipPath id="f" clipPathUnits="userSpaceOnUse"><path d="M0 0h595.276v841.89H0z"/></clipPath></defs><g clip-path="url(#a)" transform="matrix(3.06592 0 0 -3.06592 -1440.2178 173.817)"><path d="M469.7515 29.3649v.011c0 1.104.844 2.038 2.032 2.038.687 0 1.109-.191 1.515-.535l-.439-.523c-.304.259-.603.422-1.104.422-.726 0-1.278-.636-1.278-1.39v-.012c0-.81.535-1.407 1.34-1.407.372 0 .71.118.952.298v.738h-1.008v.602h1.678v-1.655c-.389-.332-.946-.614-1.644-.614-1.233 0-2.044.878-2.044 2.027m5.7144 1.9818h1.757c.495 0 .883-.146 1.137-.394.208-.214.326-.507.326-.85v-.012c0-.647-.388-1.035-.94-1.193l1.064-1.492h-.816l-.969 1.374h-.867v-1.374h-.692zm1.706-1.954c.495 0 .811.259.811.659v.011c0 .423-.304.653-.817.653h-1.008v-1.323zm3.3158-.0278v.011c0 1.109.856 2.038 2.066 2.038 1.211 0 2.055-.917 2.055-2.026v-.012c0-1.109-.856-2.038-2.066-2.038s-2.055.918-2.055 2.027m3.395 0v.011c0 .766-.557 1.402-1.34 1.402s-1.329-.625-1.329-1.39v-.012c0-.765.558-1.402 1.34-1.402.783 0 1.329.625 1.329 1.391" fill="#afaeb1"/></g><path d="M51.577 77.7106h2.1216v5.022h5.767v-5.022h2.1216v12.0828h-2.1216v-5.0925h-5.767v5.0925H51.577zm16.5704 0h2.2596l3.679 5.7118 3.676-5.7118h2.2597v12.0828H77.9V81.129l-3.814 5.6965h-.0706l-3.7802-5.6628v8.6306h-2.088zm22.7154-.0862h1.9683l5.3163 12.1687H95.903l-1.2263-2.9157H88.965l-1.2448 2.9157h-2.1737zm3.0383 7.3705l-2.088-4.8319-2.0725 4.8319zm9.7692-7.2843h1.9683l6.4722 8.3546v-8.3546h2.0879v12.0828h-1.7783l-6.6622-8.5969v8.5969h-2.0879zm17.0882 0h1.9683l6.4722 8.3546v-8.3546h2.0879v12.0828h-1.7783l-6.6622-8.5969v8.5969h-2.0879zm29.9995-.0862h1.9682l5.3163 12.1687h-2.2442l-1.2264-2.9157h-5.7118l-1.2448 2.9157h-2.1737zm3.0382 7.3705l-2.0879-4.8319-2.0725 4.8319z" fill="#afaeb1"/><g clip-path="url(#b)" transform="matrix(3.06592 0 0 -3.06592 -1440.2178 173.817)"><path d="M522.8978 29.0778v2.269h.693v-2.241c0-.732.377-1.126.996-1.126.614 0 .991.372.991 1.098v2.269h.692v-2.235c0-1.177-.664-1.768-1.694-1.768-1.025 0-1.678.591-1.678 1.734" fill="#afaeb1"/></g><path d="M182.6214 79.6783h-3.8324V77.71h9.8048v1.9683h-3.8324v10.1145h-2.14z" fill="#afaeb1"/><g clip-path="url(#c)" transform="matrix(3.06592 0 0 -3.06592 -1440.2178 173.817)"><path d="M532.7333 29.3649v.011c0 1.109.856 2.038 2.066 2.038 1.211 0 2.055-.917 2.055-2.026v-.012c0-1.109-.856-2.038-2.066-2.038-1.211 0-2.055.918-2.055 2.027m3.395 0v.011c0 .766-.557 1.402-1.34 1.402s-1.329-.625-1.329-1.39v-.012c0-.765.558-1.402 1.34-1.402.783 0 1.329.625 1.329 1.391" fill="#afaeb1"/></g><path d="M211.7577 77.7106h2.2596l3.679 5.7118 3.6761-5.7118h2.2596v12.0828h-2.1216V81.129l-3.814 5.6965h-.0705l-3.7803-5.6628v8.6306h-2.0879zm22.7153-.0862h1.9684l5.3163 12.1687h-2.2442l-1.2264-2.9157h-5.7118l-1.2448 2.9157h-2.1737zm3.0384 7.3705l-2.0879-4.8319-2.0725 4.8319zm11.1848-5.3166h-3.8324V77.71h9.8048v1.9683h-3.8324v10.1145h-2.14zm11.7872 10.1141h2.1247V77.7097h-2.1247z" fill="#afaeb1"/><g clip-path="url(#d)" transform="matrix(3.06592 0 0 -3.06592 -1440.2178 173.817)"><path d="M557.4092 29.3649v.011c0 1.109.856 2.038 2.066 2.038 1.211 0 2.055-.917 2.055-2.026v-.012c0-1.109-.856-2.038-2.066-2.038-1.211 0-2.055.918-2.055 2.027m3.395 0v.011c0 .766-.557 1.402-1.34 1.402s-1.329-.625-1.329-1.39v-.012c0-.765.558-1.402 1.34-1.402.783 0 1.329.625 1.329 1.391" fill="#afaeb1"/></g><path d="M287.412 77.7106h1.9683l6.4722 8.3546v-8.3546h2.0878v12.0828h-1.7782L289.5 81.1965v8.5969h-2.088z" fill="#afaeb1"/><g clip-path="url(#e)" transform="matrix(3.06592 0 0 -3.06592 -1440.2178 173.817)"><path d="M469.7515 56.6701c.217-.848.95-1.712 1.957-1.93h3.04l.156-.061v-7.674h1.899v7.674l.172.061h3.044c1.017.261 1.736 1.082 1.95 1.93v.02h-12.218zm74.8292-9.6876c.946.401 1.455 1.097 1.651 1.909h-8.43l.006 7.782-1.89.002v-9.693zm-28.7639 7.7882h6.675c1.006.291 1.851 1.065 2.057 1.915l-10.603.001v-5.737h8.678v-2.01l-6.805-.005c-1.07-.297-1.972-1.012-2.423-1.96l11.094.005v5.875h-8.673zm-22.5602-.0204h7.226c1.005.2 1.752 1.085 1.961 1.943h-11.148c.208-.858.966-1.743 1.961-1.943m0-3.8317h7.226c1.005.199 1.752 1.086 1.961 1.943h-11.148c.208-.857.966-1.744 1.961-1.943m0-3.9346h7.226c1.005.2 1.752 1.085 1.961 1.943h-11.148c.208-.858.966-1.743 1.961-1.943" fill="#afaeb1"/></g><path d="M264.6485 11.7924v17.9694h5.767V17.7986h20.9739v11.9632h5.7547V11.823z" fill="#afaeb1"/><g clip-path="url(#f)" transform="matrix(3.06592 0 0 -3.06592 -1440.2178 173.817)"><path d="M557.7422 54.7429h7.226c1.005.199 1.751 1.086 1.961 1.943h-11.149c.209-.857.967-1.744 1.962-1.943" fill="#afaeb1"/></g><path d="M0 54.5436h297.9397v-1.7874H0z" fill="#afaeb1"/></svg>